# xmcd CD database file
#
# Track frame offsets:
#	150
#	19855
#	38554
#	56454
#	80103
#	99180
#
# Disc length: 1521 seconds
#
# Revision: 0
# Processed by: cddbd v1.5.2PL0 Copyright (c) Steve Scherf et al.
# Submitted via: CDex 1.83
#
DISCID=3d05ef06
DTITLE=Calvin Rainwater - Sinners and Saints
DYEAR=2017
DGENRE=Country
TTITLE0=Calvin Rainwater - Sinners and Saints
TTITLE1=Calvin Rainwater - God Sent Me An Angel
TTITLE2=Calvin Rainwater - If We Could Go Fishin' One More Time
TTITLE3=Calvin Rainwater - Chloey Marie
TTITLE4=Calvin Rainwater - Tonight I told My Dreamgirl Goodbye 
TTITLE5=Calvin Rainwater - David Patterson - TThe Boulevard (Bonus Track)
EXTD=YEAR: 2017
EXTT0=
EXTT1=
EXTT2=
EXTT3=
EXTT4=
EXTT5=
PLAYORDER=
